PathFileType	4	(X/Y/Z)	Patient4_TMGait_0pt2_02_left_19.trc.trc
DataRate	CameraRate	NumFrames	NumMarkers	Units	OrigDataRate	OrigDataStartFrame	OrigNumFrames
46.357615894040	46.357615894040	5	33	mm	46.357615894040	71	       141
Frame#	Time	R.Midfoot.Superior			Sacral			L.Shoulder			Chest			R.Shoulder			Neck			R.ASIS			L.ASIS			R.Thigh.Superior			R.Thigh.Lateral			R.Thigh.Inferior			R.Patella			L.Thigh.Superior			L.Thigh.Lateral			L.Thigh.Inferior			L.Patella			L.Shank.Superior			L.Shank.Lateral			L.Shank.Inferior			R.Shank.Superior			R.Shank.Lateral			R.Shank.Inferior			R.Heel			R.Midfoot.Lateral			R.Toe			L.Heel			L.Midfoot.Lateral			L.Midfoot.Superior			L.Toe			L.Elbow			L.Wrist			R.Elbow			R.Wrist			
		X1	Y1	Z1	X2	Y2	Z2	X3	Y3	Z3	X4	Y4	Z4	X5	Y5	Z5	X6	Y6	Z6	X7	Y7	Z7	X8	Y8	Z8	X9	Y9	Z9	X10	Y10	Z10	X11	Y11	Z11	X12	Y12	Z12	X13	Y13	Z13	X14	Y14	Z14	X15	Y15	Z15	X16	Y16	Z16	X17	Y17	Z17	X18	Y18	Z18	X19	Y19	Z19	X20	Y20	Z20	X21	Y21	Z21	X22	Y22	Z22	X23	Y23	Z23	X24	Y24	Z24	X25	Y25	Z25	X26	Y26	Z26	X27	Y27	Z27	X28	Y28	Z28	X29	Y29	Z29	X30	Y30	Z30	X31	Y31	Z31	X32	Y32	Z32	X33	Y33	Z33	

71	44.630000000000	1228.213404323224	119.395735795217	626.944570847925	928.583728571164	1018.496563624163	359.720515461247	1196.156008103944	1430.694938851000	230.831522995961	1235.222568514914	1356.102794172876	413.591761007743	1112.350691090103	1443.552153037172	553.160189328575	1130.273105093979	1495.620943737094	377.021550871464	1123.192307996937	947.110935503947	530.266686575774	1169.794669599690	955.496677235816	257.976085732022	1190.043166241079	767.409242645187	514.776519341237	1130.604597755363	657.510233298391	592.806889543218	1218.487864157879	604.895333241922	522.739267897589	1241.641505079979	519.059679193716	550.031286444217	1189.009679136836	737.953972262268	296.792362037052	1101.193483795258	622.283245563951	230.466072811265	1169.550509273790	545.010853062963	309.778290753711	1163.182422216476	476.150340029919	321.013761082226	1127.000273797134	405.639622242375	312.447191931870	1031.079872866426	298.292846025018	259.546862500904	1061.546097234770	186.377849190732	338.996201947185	1209.890422904507	432.256316718688	567.346475478410	1135.001719695293	340.622508857428	642.622468862772	1183.757806645361	236.997512945259	601.470534391830	1053.292499196382	68.993768470595	594.672696278383	1140.205557368241	56.331653048472	663.926860942333	1346.116788411863	65.926986211183	648.105476138880	919.207574476240	39.642275897062	382.368612726750	992.602333339575	35.658126203659	301.242764263881	1076.988210487594	95.367629850892	328.208253312963	1204.750086376851	41.852469297021	298.235818657556	1339.202011432706	1135.833597872462	89.360045184723	1590.695720974175	1075.220952838665	134.197265588126	897.639201963576	1165.811429020183	618.145455277704	832.510373075131	910.696356256546	607.088479935364	
72	44.651571428571	1242.562741229802	116.876840131222	628.618965889199	928.990114704706	1018.884250670877	361.661822578013	1196.503548586988	1430.666392606684	234.177167391444	1233.992018612250	1357.021022530337	417.528302974456	1110.135291556564	1445.322284723188	555.612566401594	1129.103602226335	1496.146087199977	379.352903885925	1121.704065777130	946.929082992083	534.270176290020	1171.146425243752	955.936537245824	262.379378349817	1185.980988614510	764.950421606386	519.944415238145	1123.124974698907	655.574150679545	596.207441678832	1211.115720779772	602.584426780914	526.823909804662	1233.210984751311	519.234371198386	552.754682584934	1187.195339614819	737.273816317026	300.262264080492	1098.029465674660	623.224642716020	232.073498080745	1164.449603196886	544.587675065311	311.245896053187	1156.896188804689	476.194064642150	322.055649248423	1121.368720575523	406.120205898013	313.038108846955	1025.864465591264	298.596643844752	259.870220994087	1056.725365385392	186.588076379379	339.113103945567	1206.186631252432	431.889888015766	570.132297964210	1136.295470752634	335.773966418337	645.386103975863	1190.982176464989	234.597662271673	603.922893306476	1068.709507565946	60.581808362764	596.714698475085	1156.669987896521	50.110017282632	665.252456503662	1362.783869433274	67.136095385093	648.380562839529	914.845697212892	39.560806832562	382.342941507790	988.226483229171	35.572419383519	301.204622774370	1072.591245508348	95.337803931079	328.193202049666	1200.390917597723	41.865683897370	298.266176000247	1345.343277797106	1139.612903126108	93.967704076432	1599.528649375020	1093.277267484388	138.885786394634	893.862299239130	1169.368724513935	617.910877640238	827.856870171986	914.416788466350	604.897737636604	
73	44.673142857143	1253.333806137592	114.483494923959	629.055398821032	929.637425362593	1018.794485889691	364.192992178130	1196.501127494957	1430.376555383161	237.778549091837	1232.842203358144	1357.658718156697	421.646712095254	1108.110961706713	1446.552558613596	558.516563086100	1127.887512912155	1496.324558103027	382.082994406542	1120.765427215885	946.315757521059	538.488404483446	1172.622027520237	956.148117973407	267.038478506055	1182.862297368323	762.250094600052	525.049302044927	1116.570503284274	653.155757737880	599.216968316051	1204.900511225329	600.141063516447	530.577788764437	1225.515224604143	518.763349637439	555.035713097021	1185.871626345714	736.462332617766	303.859705068055	1095.364481423913	624.004235144114	233.924812421416	1159.932874175255	544.050729969758	312.839604018318	1151.263092621975	476.071756832293	323.224317810265	1116.266770460060	406.423419114428	313.789681646419	1021.016777988689	298.894122177926	260.296006289241	1052.093675969993	186.714019661258	339.268454138169	1202.525993681860	430.962295793827	572.353974906948	1136.692564535277	331.336889985632	647.308422797282	1196.083072482256	232.437582769580	605.438335753091	1080.404316144303	54.504714768236	597.600897692951	1169.018937741362	45.354849655215	665.481705643227	1374.952077774614	67.170059560927	647.529402960987	910.488116503086	39.487994581794	382.303571116905	983.855848098077	35.484114447667	301.164907598856	1068.204847557601	95.298635760892	328.178514200656	1196.036720136271	41.858058634381	298.291351004528	1350.695135237123	1142.867238856313	98.853391579940	1606.653395363440	1109.939499136740	143.618011416931	891.681502088191	1171.125637601610	618.658503627069	825.829316813710	916.031592607966	603.937503857736	
74	44.694714285714	1260.466775405917	112.161224246001	628.389968659611	930.533166767637	1018.286585635472	367.325847242522	1196.162157099670	1429.903289890904	241.655931755835	1231.798802807633	1358.073845448048	425.965044668599	1106.282450588079	1447.278113938637	561.897043422962	1126.645350361512	1496.217862770384	385.249741560482	1120.410395194922	945.372341052346	542.915822233831	1174.215976880422	956.197040240643	271.922238481654	1180.799475862142	759.460979796215	530.016086166778	1111.191223324178	650.419131234837	601.831655988112	1200.053341253711	597.708129228660	533.954298707822	1218.859014941498	517.742018178546	556.876652924267	1185.021365952720	735.545678103750	307.565771278857	1093.154792454441	624.645540810749	236.033287295790	1155.970197232067	543.426084463027	314.572457409596	1146.259690912530	475.811199412420	324.541052514670	1111.665776557166	406.577852942621	314.721907886804	1016.511665766084	299.207444402718	260.839418893669	1047.636925912867	186.773535917567	339.471108136287	1199.130838673139	429.529717232380	574.036935347370	1136.308790778650	327.331018381300	648.464570930566	1199.111448674184	230.381340862513	606.082709188026	1088.231644416769	50.358706805084	597.484685614992	1177.179304459612	41.910295467547	664.848338120521	1382.747374409021	66.147357917599	645.868393794302	906.132338060685	39.429574182707	382.250018962921	979.489639187226	35.399940792944	301.123902694425	1063.829588213339	95.254349329292	328.162710723882	1191.684716866240	41.831826605709	298.309683714577	1355.181540066482	1145.575950079742	103.972949162677	1612.153034846819	1125.031771128530	148.357092811942	890.928026483120	1171.233848281319	620.481890145229	826.094341781294	915.749501810864	604.387828268458	
75	44.716285714286	1264.167301255084	109.897826836551	626.843785163553	931.676427209388	1017.439769579197	371.058610379772	1195.518716314809	1429.332325453045	245.821447025077	1230.889587244866	1358.332964826977	430.492175939801	1104.668889171195	1447.565518849017	565.762105138339	1125.404786031044	1495.901842447367	388.875146833025	1120.651668236679	944.219080532639	547.543717273946	1175.916348725468	956.148621413471	276.991749147342	1179.826360884366	756.716113880253	534.791399453150	1107.162691911297	647.544368638056	604.115175995647	1196.669576180040	595.393680596080	536.950777557326	1213.462224528291	516.281912180191	558.328852641264	1184.599524311783	734.556672629551	311.372718097738	1091.341424220801	625.177573414877	238.407806997108	1152.512591003691	542.745541455247	316.464130481198	1141.841281315871	475.445239962860	326.028795969225	1107.522317991921	406.619538248436	315.852548907342	1012.311237563682	299.563064247578	261.517798922932	1043.336841178666	186.790001856740	339.731296347971	1196.191571302867	427.682719846675	575.255481796098	1135.340854457865	323.757698622331	649.010681943588	1200.274114407469	228.322280925227	605.992130876144	1092.366435555829	47.684287368861	596.612584245623	1181.409548213972	39.574754817335	663.642566576863	1386.585121966780	64.305308435875	643.729963180061	901.777708587423	39.396724130536	382.183391995940	975.128739607301	35.331519186334	301.083521884843	1059.468179933771	95.211556876367	328.145739524734	1187.332717331025	41.788426922190	298.319975146334	1358.749139260267	1147.729305404525	109.280311340940	1616.138379700557	1138.405421219122	153.062270684479	891.434341989367	1169.932035743583	623.440102687139	828.346308765159	913.871101737205	606.401284089762	
